# xmcd CD database file
#
# Track frame offsets:
#	150
#	12124
#	22193
#	33872
#	44999
#	58676
#	68464
#	78265
#	89718
#	102379
#	114901
#	125241
#	138875
#	151230
#
# Disc length: 2268 seconds
#
# Revision: 0
# Processed by: cddbd v1.5.2PL0 Copyright (c) Steve Scherf et al.
# Submitted via: CDex 1.51
#
DISCID=b908da0e
DTITLE=Honky Tonk Hustlas - Hallways of the Always
DYEAR=2008
DGENRE=Country
TTITLE0=Devil Let Me Be
TTITLE1=Livin' My Life Alone
TTITLE2=Hallways of the Always
TTITLE3=The Path I Tread
TTITLE4=Wastin' My Time
TTITLE5=Fallen Once Again
TTITLE6=Torn Between Two
TTITLE7=You Ran Me Off
TTITLE8=Dark Lost Soul
TTITLE9=Stone Cold Heart
TTITLE10=Ed's on the Prowl
TTITLE11=Cheatin'
TTITLE12=Demoniac
TTITLE13=Blood Mountain
EXTD=YEAR: 2008
EXTT0=
EXTT1=
EXTT2=
EXTT3=
EXTT4=
EXTT5=
EXTT6=
EXTT7=
EXTT8=
EXTT9=
EXTT10=
EXTT11=
EXTT12=
EXTT13=
PLAYORDER=
